<svg xmlns="http://www.w3.org/2000/svg" viewBox="0 0 1054 135.8"><path d="M604 128.6c-7-20.4-14-40.9-21.1-61.3-.7-2-1.5-3.9-3.3-5.7-.2 1-.6 2-.6 3 0 15.5-.2 31 .1 46.5.1 2.9 2.3 5.9 3.6 8.7 1.1 2.4 2.4 4.8 3.9 7.8h-25c1.7-3.2 3.1-5.8 4.3-8.4 1.1-2.3 2.8-4.7 3-7 .4-8 .2-16 .2-24 0-4.3-1.6-7.5-5.1-10.3-2.2-1.8-3.3-4.9-5.7-8.7 4.5.6 7.2.9 10.5 1.3V61c0-2-.3-4 0-6 1.8-10.8.5-20.9-8.1-30h33.6c-.7 2-1.5 3.9-2 5.8-.6 2.7-2.1 5.9-1.3 8.3 5.1 15.3 10.8 30.4 16.3 45.6.1.4.6.7 1.3 1.6 2-4.9 4-9.5 5.8-14.1 4-10.4 7.9-20.8 12-31.2 1.4-3.6 2.2-6.8-1.1-10-1.2-1.2-1.3-3.5-2.1-5.9h32.4c-1.1 2.4-2 4.4-2.9 6.4-1.3 3-3.7 6.1-3.8 9.2-.3 23.5-.3 47-.1 70.5 0 3 2.2 5.9 3.5 8.8 1.1 2.5 2.5 4.8 4 7.7h-31.9c1.5-3.2 2.7-5.6 3.8-8.1.9-2.1 2.6-4.2 2.6-6.2.2-16 .2-32 .2-48 0-1.1-.3-2.1-.5-3.2-.4-.1-.9-.2-1.3-.3-7.8 22.3-15.6 44.5-23.4 66.8-.5-.1-1.1-.1-1.8-.1zM16 6.6c1.7 1.3 3.3 2.6 4.9 3.9-.2.7-.3 1-.4 1.2-1.8 2.5-5.2 5.2-4.9 7.5.4 3.8 4.5 4.4 8.3 4.4 10.8.2 21.8-.5 32.3 1.3 14.6 2.5 22.8 15 19.7 28.5-1.1 4.7-4.7 8.9-7.8 12.9-1.7 2.2-4.8 3.4-7.7 5.4 1.5.8 2.6 1.5 3.9 2.2 9.1 5 15.2 12.1 14.8 23-.5 11.1-6.3 19-16.3 23.9-2.4 1.2-5 2.4-7.5 2.6-13.4.9-26.8 1.4-41.3 2.1 1-3.3 1.1-5.9 2.4-7.1 3.6-3.2 3.9-7.1 3.8-11.4-.1-7.2.3-14.4-.3-21.5-.2-2.8-2.1-5.7-3.6-8.2-1.7-2.8-3.9-5.2-6.7-8.9h10.3V39.5c0-4.3-2-6.5-6.5-7-5.8-.8-10.9-3.1-13.3-9v-7l10-10c1.9.1 3.9.1 5.9.1zm22.1 72.2v32.6c0 4 2.1 5.6 6 5.3 6.6-.5 11.5-4.1 12.8-10.5.9-4.2 1.3-8.5 1.2-12.8-.4-11.5-8-17.1-20-14.6zM37.9 68c9.1 1.6 14.2-.3 17.2-6.4 4-8.1 3.9-16.3-.1-24.4-2.2-4.4-5.8-6.9-10.6-7.3-3.9-.4-6.5 1.2-6.5 5.6V68zM1054 24.6c-2.4 6.9-8.5 8.3-15.2 9.6.3 2.6.8 5 .8 7.4 0 1.6-.5 4.3-1.3 4.5-1.9.4-4.5.3-5.9-.8-2-1.6-3.1-4.2-4.6-6.4-3.3-5.1-7.6-8.3-13.9-8.3-3.9 0-6 1.6-5.9 5.6.1 8.3-.1 16.7.3 25 .1 3.2-.3 7.5 4.5 8.3 4.7.8 8.6-.2 10.7-5.1 1.2-2.8 2.9-5.4 7.2-4.3v27.8c-2.6-2.2-4.6-4.1-6.9-5.7-2.5-1.7-5.1-3.8-7.9-4.3-5.6-.9-7.5 1.2-7.5 6.9V117c8.8 2.5 15.2.4 20.4-6.3 2.1-2.8 3.9-5.9 6.4-8.2 1.4-1.3 4.1-1.2 6.3-1.7.3 1.8 1.1 3.8.7 5.4-1.7 6.8-3.7 13.5-5.7 20.4h-52.3c.9-2.6.9-5.4 2.4-6.7 3.7-3.3 4.1-7.4 4.1-11.8-.1-6.8-.1-13.7-.2-20.5 0-4.3-1.2-7.9-5-10.8-2.2-1.6-3.3-4.7-5.6-8.2 4 .4 6.7.7 10 1.1-.5-15.2 4.1-30.7-7.1-45.2H996c11.2-.1 22.3-.1 33.5-.2 3.7 0 8.4.5 9.1-4 .4-2.6-2.6-5.7-4.3-9 4.2-4.7 11.4-4.3 16.5 2 1.1 1.4 2.1 2.9 3.1 4.3.1 2.4.1 4.7.1 7zM218 104.5c0-9.6.2-18.5-.2-27.4-.1-1.8-2.3-3.5-3.4-5.3-1.4-2.4-2.6-4.9-4.3-8.2h8c-1.7-13.2 3.7-27.2-7.7-39.9h29.1c-.6 2.1-.6 4.6-1.8 5.6-3.7 3.1-4 7-4 11.3.1 22 .1 44 .1 66 0 4.8.2 9.2 4.2 12.7 1.4 1.2 1.6 3.8 2.7 6.5-9.2 0-17.7.1-26.1-.2-1.2 0-2.8-2-3.4-3.4-7.3-15.7-14.4-31.5-21.5-47.2-.8-1.8-1.7-3.5-3.4-5.2 1.1 18.6-5.1 37.6 5.5 56h-28.5c1-2.6 1.3-5.4 2.8-6.9 3.3-3.1 3.8-6.8 3.8-10.9-.1-7.8-.3-15.7 0-23.5.2-5-1.2-9-4.6-12.7-1.8-2-2.6-4.9-4.5-8.6 4.1.4 6.3.6 9 .8 0-7-.8-14.1.2-20.9 1.2-7.7-4.3-12.7-6.6-19.5h29.1c-.7 2.2-1.5 4-1.9 5.9-.5 2.9-1.8 6.3-.9 8.7 8.7 21.6 17.8 43 26.8 64.5.3.6.7.9 1.5 1.8zM907.4 23.6c13.7.7 27.5.7 41.1 2.2 10 1.1 16.6 7.7 18.3 17.8 1.9 11.2 1.3 21.8-9.9 28.5-3.9 2.3-4.5 5.3-2.9 9.3 3.8 9.6 7.3 19.3 11.4 28.8 1.3 3.1 4.1 5.6 5.8 8.6 1.1 1.9 1.8 4.3 1.6 6.4-.1.7-3.4 1.5-5.3 1.6-6.3.2-12.7.1-19-.1-1.6-.1-4-.8-4.5-1.9-.6-1.2.8-3.3 1.1-5 .6-2.7 2-5.7 1.4-8.1-2.5-9.3-5.7-18.4-8.7-27.6-.4-1.2-.9-2.8-1.9-3.4-1.3-.8-3.1-1.1-4.5-.9-.7.1-1.5 2-1.5 3.1-.1 9.8-.2 19.7.1 29.5.1 2 2.2 3.9 3 6 .8 2.2 1.2 4.6 1.8 7-2 .5-4.1 1.4-6.1 1.4-7.4.2-14.9.1-23.8.1 1.9-3.5 3.3-5.9 4.6-8.5 1.1-2.2 2.6-4.4 2.7-6.7.4-8.6.7-17.3.1-26-.2-2.8-2.5-5.9-4.7-8-2.6-2.5-4.6-4.7-3.1-9 2.4.3 4.8.6 8.1 1-1.9-14.9 4.7-30.3-6-44.1.2-.7.5-1.4.8-2zM930 52.2h-.3c0 4.6.2 9.3-.1 13.9-.2 3.7 1.3 4.6 4.7 4.5 7.9-.2 11.7-4 14.1-14.6 2.6-11.5-2-21.4-11.4-24.4-4.5-1.4-6.9.2-7.1 5.1 0 5.2.1 10.3.1 15.5zM253.2 68.4h8.6c-1.2-14.7 3.7-30-6.4-44.4 16.6.1 32.5-3.7 47.9 2.6 8.9 3.6 13.9 10.6 14.9 20.2 1 9.3-2.8 16.5-10.6 21.6-1.8 1.2-3.6 2.3-5.7 3.6 1.9 1 3.3 1.8 4.8 2.5 17.9 9.7 19.2 32.2 2.4 43.8-3.1 2.1-6.8 4.3-10.3 4.6-14 1.3-28 1.9-42.1 2.8l-.9-1.8c1.1-2.2 2.4-4.4 3.4-6.7 1.1-2.5 2.5-5.1 2.6-7.7.3-8 .4-16-.2-24-.2-2.8-2.1-5.6-3.7-8.2-1.7-2.8-3.8-5.2-5.8-7.8.5-.3.8-.7 1.1-1.1zM280 78.7c0 9.9.4 19.6-.1 29.1-.6 10.9 5.3 10.3 11.8 7.2 3-1.5 5.6-5.1 7-8.4 1.4-3.4 1.4-7.5 1.4-11.3 0-12.7-6.6-18.3-20.1-16.6zm-.2-10c2.5 0 4.1.1 5.8 0 8.8-.3 14.1-7.3 14.2-18.7.1-11.1-5.7-19.6-13.8-20.1-3.4-.2-6.1 1.1-6.2 4.9v33.9zM78.7 68.8h8.5c1-5.3 1.4-10.5 2.9-15.4 1.8-5.8 3.7-11.9 6.9-16.9 10.9-17.1 35.6-17.3 45.8.2 14.2 24.2 14.5 49.7.9 74.2-10.9 19.6-34.2 19.9-46.3 1-4.2-6.6-6.2-14.9-8.4-22.6-1.4-4.8-1.6-9.7-6.1-13.1-1.9-1.5-2.6-4.4-4.2-7.4zm48.6-.8c2.9-.2 7.5 3.2 7.4-3-.2-9.9-1.4-19.7-7-28.2-1.8-2.7-5.6-5.8-8.3-5.6-2.6.2-5.2 4.2-7.4 6.8-1.1 1.3-1.4 3.3-2 5.1-4.8 15.5-5.5 31.5-3.3 47.4 1 7.5 3.5 14.9 6.4 21.9 2.4 5.9 7.5 6.6 11.9 1.9 2.5-2.7 4.6-6.2 5.7-9.7 1.9-6.3 2.9-13 4.2-19.5.7-3.4-.8-5.7-3.8-7.4-3.8-2.1-5.1-5.4-3.8-9.7zM712.1 60v27.7c-2.9-2.4-5.5-3.8-7-5.9-3-4.2-7.1-4.9-11.5-4-1.6.3-3.8 2.7-3.8 4.2-.3 11.6-.2 23.2-.2 34.7 9.1 2.4 15.3.3 20.4-6.5 2.1-2.8 3.9-6 6.4-8.3 1.4-1.3 4.1-1.1 6.3-1.6.3 1.8 1.1 3.7.8 5.4-.7 3.6-2.2 7-3 10.5-.9 3.5-1.4 7.1-2 10.5h-53.1c1.1-2.9 1.3-5.7 2.8-7 3.4-3.3 3.9-7.1 3.8-11.4-.2-7-.1-14-.2-21 0-4.4-1.4-7.9-5.2-10.7-2.2-1.6-3.3-4.7-5.5-8.2 4 .4 6.7.7 10 1-.6-15.2 3.9-30.8-7.4-45.1h54c1 5.9 2.1 12.1 3 18.4.1.9-.9 2.8-1.6 2.9-1.8.3-4.3.4-5.5-.6-2-1.6-3.3-4.1-4.7-6.3-3.4-5.5-8-8.8-14.8-8.5-3.4.1-5.3 1.7-5.3 5.2.1 8.7 0 17.3.4 26 .2 3 0 7 4.7 7.7 4.6.7 8.2-.3 10.3-4.9 1.5-2.8 3-5.6 7.9-4.2zM319.1 125.4c1.8-2.8 2.9-5.1 4.6-6.8 9.3-9.5 10.3-22.5 14-34.2.6-1.8-.8-4.3-1.6-6.4-1.1-2.8-2.5-5.5-4-8.9 2.7 0 4.1-.1 5.6 0 3.3.1 5.4-1.3 6.3-4.5 2.4-8.5 4.8-16.9 7.1-25.5.4-1.5.5-3.3.2-4.9-1.1-6.8-1-6.9 5.4-8.7 1.3-.4 2.5-.8 3.8-1.1 5.4-1.6 6.9-.8 8.4 5.1 4.4 16.9 8.7 33.8 13 50.7 1.8 6.9 4 13.8 5.3 20.8 1.4 7.9 6 13.9 10.2 20.3.8 1.2 1.2 2.6 2.1 4.4h-32.1c1-2.5 1.3-4.8 2.7-6.1 4.3-4.2 2.2-8.7.8-13-1.4-4.1-4.9-5.1-8.9-5-3.2.1-6.3-.1-9.5 0-11.4.4-15.7 8.4-9.7 18.1 1 1.7 1.8 3.5 3 5.7h-26.7zm26.4-33.8h21.2c-2.9-12.7-5.7-24.8-8.5-36.9h-1.8c-3.6 12.2-7.2 24.3-10.9 36.9zM485.4 92.6c2.8-5.5 6.3-9.2 12-10 6-.9 12.1.7 15.3 5.4 2.3 3.4 1.9 8.9 1.8 13.5-.3 18.5-23.2 29.9-39.3 23.5-2.9-1.1-5.7-2.6-8.6-3.9-7.1 6.2-11.1 6.2-16.9-.4 5.5-5.3 5.5-12.5 6.2-19.4.5-4.8.3-9.7.6-14.5.3-6.2-.4-11.8-5.8-16.1-1.6-1.3-1.9-4.1-3.3-7.3 4.3.5 7.2.8 10.6 1.2-.3-13.7 3.7-27.6-6.7-40.2H480c-.3 1.4-.2 3.3-1.1 4-6.8 5.9-5.5 13.9-5.7 21.3-.5 18.8-.6 37.7-1 56.5-.1 3.4.7 5.4 4.3 5.8 2 .2 3.9.9 5.9 1.2 12.3 1.9 19.3-4.7 18-17.1-.6-5.2-2.5-6.7-7.6-5.7-2.4.5-4.5 1.4-7.4 2.2zM782.2 24.7c0 8.8.1 17.3-.1 25.7 0 1-1.1 2-1.8 3-1.7-1.1-4.2-1.8-4.9-3.3-1.7-3.8-2.3-8-3.7-11.9-2-5.2-5.4-7.3-10.3-6.8-6.9.7-11.3 6.6-9 13.1 1.6 4.5 3.9 8.9 6.7 12.7 7.1 9.5 14.8 18.5 22 27.8 5.9 7.7 7.3 16.3 3.7 25.4-4.5 11.6-12 16.7-24.5 16.7h-22.2V96.8c4-1.3 6.5.5 7.8 4 1.2 3.1 1.9 6.4 3 9.5 2 5.6 8.1 10.3 12.1 9.5 4.9-1 9.4-8 9.1-14-.6-11.4-10.5-23.1-22.1-26.1-6.9-1.8-8.7-3.6-9-9.6 2.1-.2 4.2-.4 7-.7-1.7-2.5-3.3-4.6-4.7-6.7-5.4-7.8-7-16.2-2.7-25s11.9-12.7 21.4-13c7.2-.2 14.4 0 22.2 0zM798.2 97c4.5-1.4 6.9.8 8.3 4.5 1.1 3 1.7 6.1 2.7 9.1 2.1 5.9 8.5 10.5 12.7 9.3 5.6-1.6 10.1-9.6 8.3-15.8-3.4-11.9-9.2-21.8-22.8-24.4-5.8-1.1-7.6-3.6-8.3-9.3 2.2-.3 4.3-.5 7.1-.8-2-3-3.9-5.5-5.5-8.2-9.6-15.3-1.7-33.5 16.1-36 8.1-1.1 16.5-.2 25.8-.2 0 8.5.1 17.1-.1 25.7 0 .9-1.2 2.5-1.7 2.5-1.5-.2-3.6-.6-4.3-1.6-1.2-1.9-1.7-4.3-2.4-6.5-.9-2.7-1.5-5.5-2.7-8-2.5-5.4-7.5-7.2-12.9-5-5 2-7.8 7.1-5.8 12.1 1.7 4.6 3.9 9.2 6.9 13.1 7 9.3 14.6 18.1 21.7 27.4 7.5 9.8 7.6 20.2 1.3 30.8-4.4 7.5-10.9 11.6-19.6 11.6-7.2 0-14.3-.3-21.5-.8-1.1-.1-3.1-1.7-3.1-2.6-.3-9-.2-18-.2-26.9zM889.6 24c-.9 2.2-1.1 4.7-2.4 5.7-4.2 3-4.4 7.1-4.4 11.5 0 20.2.1 40.3-.1 60.5-.1 6.6.1 12.9 4 18.6 1.2 1.8 1.7 4.2 2.7 6.8h-32.2c1.9-3.2 3.5-5.7 4.8-8.2 1.2-2.3 2.7-4.7 2.8-7.1.4-8 .6-16-.1-24-.3-3.4-3.1-6.7-4.8-9.9-1.4-2.7-3-5.3-4.6-8 .4-.4.9-.7 1.3-1.1 2.6.3 5.1.6 8.4.9-1.2-15.5 4.6-31.5-7.5-45.7h32.1zM436.8 126.4h-30.4c1.2-2.7 2.2-4.9 3.2-7.1 1.2-2.8 3.3-5.4 3.5-8.3.5-6.8 0-13.6.2-20.4.1-4.5-1.6-7.9-4.6-11.1-1.9-2.1-3-5-5.2-8.8 4.3.4 6.7.7 9.6 1-.8-16.3 5-33-6.5-48.3h30.2c-1.1 2.3-2 4.2-2.8 6.1-1.3 2.9-3.5 5.8-3.5 8.8-.3 23.6-.3 47.3-.2 70.9 0 2.4 1.1 4.8 2 7 1.2 3.3 2.8 6.5 4.5 10.2z"/></svg>